<?xml version="1.0" encoding="UTF-8"?>
<svg xmlns="http://www.w3.org/2000/svg" xmlns:xlink="http://www.w3.org/1999/xlink" width="155pt" height="155pt" viewBox="0 0 155 155" version="1.1">
<g id="surface1">
<path style=" stroke:none;fill-rule:nonzero;fill:rgb(13.333333%,13.333333%,13.333333%);fill-opacity:1;" d="M 71.414062 0.0390625 C 71.050781 0.078125 69.886719 0.210938 68.839844 0.308594 C 53.929688 1.871094 39.25 8.179688 27.277344 18.207031 C 25.066406 20.039062 20.03125 25.074219 18.203125 27.285156 C 8.289062 39.125 2.492188 52.410156 0.359375 68.140625 C -0.121094 71.628906 -0.121094 83.410156 0.359375 86.902344 C 2.492188 102.628906 8.289062 115.917969 18.203125 127.757812 C 20.03125 129.96875 25.066406 135.003906 27.277344 136.832031 C 39.117188 146.746094 52.40625 152.542969 68.132812 154.675781 C 71.625 155.152344 83.40625 155.152344 86.894531 154.675781 C 102.625 152.542969 115.910156 146.746094 127.75 136.832031 C 129.960938 135.003906 134.996094 129.96875 136.824219 127.757812 C 146.738281 115.917969 152.535156 102.628906 154.671875 86.902344 C 155.148438 83.410156 155.148438 71.628906 154.671875 68.140625 C 152.535156 52.410156 146.738281 39.125 136.824219 27.285156 C 134.996094 25.074219 129.960938 20.039062 127.75 18.207031 C 115.949219 8.332031 102.527344 2.460938 87.007812 0.382812 C 85.332031 0.152344 82.890625 0.0585938 78.371094 0.0195312 C 74.921875 -0.015625 71.777344 0 71.414062 0.0390625 Z M 72.367188 8.277344 C 72.367188 10.507812 72.519531 15.347656 72.730469 19.945312 C 72.84375 22.195312 72.976562 25.414062 73.035156 27.09375 C 73.242188 33.042969 73.871094 48.65625 73.96875 50.046875 L 74.0625 51.441406 L 73.207031 51.34375 C 72.730469 51.304688 72.289062 51.191406 72.214844 51.132812 C 72.15625 51.058594 72.023438 49.742188 71.945312 48.199219 C 71.605469 41.410156 70.480469 15.082031 70.363281 11.230469 L 70.25 7 L 70.785156 6.921875 C 71.070312 6.882812 71.546875 6.828125 71.851562 6.808594 L 72.367188 6.789062 Z M 90.613281 7.820312 C 90.632812 7.835938 90.6875 13.59375 90.746094 20.609375 C 90.820312 27.644531 90.917969 33.957031 90.972656 34.644531 C 91.03125 35.347656 91.011719 35.957031 90.917969 35.996094 C 90.839844 36.054688 90.363281 36.054688 89.886719 35.996094 L 89.011719 35.921875 L 88.878906 30.371094 C 88.800781 27.304688 88.707031 23.910156 88.667969 22.804688 C 88.515625 19.429688 88.382812 7.972656 88.496094 7.683594 C 88.570312 7.476562 88.78125 7.457031 89.582031 7.589844 C 90.136719 7.703125 90.59375 7.800781 90.613281 7.820312 Z M 46.515625 14.207031 C 46.628906 14.375 47.523438 24.882812 48.628906 38.628906 C 48.992188 43.296875 49.355469 47.570312 49.414062 48.101562 C 49.507812 49.074219 49.488281 49.113281 48.878906 49.496094 C 48.535156 49.703125 48.191406 49.875 48.117188 49.875 C 48.058594 49.875 47.945312 49.378906 47.886719 48.769531 C 47.621094 46.292969 46.589844 34.320312 45.867188 25.664062 C 45.445312 20.574219 45.066406 16.015625 45.007812 15.519531 C 44.914062 14.683594 44.933594 14.605469 45.425781 14.339844 C 46.039062 14.015625 46.378906 13.957031 46.515625 14.207031 Z M 99 18.039062 C 99.535156 18.226562 99.589844 18.324219 99.707031 19.410156 C 99.898438 21.316406 99.839844 30.429688 99.628906 30.429688 C 99.078125 30.429688 97.933594 29.78125 97.835938 29.417969 C 97.78125 29.191406 97.722656 26.484375 97.722656 23.414062 C 97.722656 17.21875 97.648438 17.578125 99 18.039062 Z M 63.789062 18.933594 C 63.789062 19.449219 63.921875 22.289062 64.074219 25.28125 C 64.226562 28.277344 64.398438 32.070312 64.472656 33.707031 C 64.605469 37.027344 64.644531 36.910156 63.367188 36.988281 C 62.738281 37.007812 62.738281 37.007812 62.699219 36.054688 C 62.664062 35.519531 62.566406 33.863281 62.453125 32.335938 C 62.359375 30.8125 62.128906 27.511719 61.976562 24.996094 C 61.824219 22.480469 61.632812 19.980469 61.574219 19.449219 C 61.460938 18.496094 61.480469 18.457031 61.996094 18.265625 C 62.300781 18.152344 62.835938 18.054688 63.175781 18.054688 C 63.789062 18.039062 63.789062 18.039062 63.789062 18.933594 Z M 116.675781 21.546875 L 117.324219 21.8125 L 117.457031 24.367188 C 117.511719 25.757812 117.550781 28.769531 117.511719 31.039062 L 117.457031 35.195312 L 116.65625 34.796875 L 115.855469 34.414062 L 115.796875 28.085938 C 115.757812 24.597656 115.777344 21.640625 115.816406 21.507812 C 115.890625 21.222656 115.890625 21.222656 116.675781 21.546875 Z M 81.859375 24.042969 C 81.976562 24.15625 82.242188 33.402344 82.261719 38.09375 L 82.28125 40.914062 L 81.382812 40.78125 C 80.871094 40.726562 80.449219 40.667969 80.429688 40.648438 C 80.375 40.609375 79.800781 26.484375 79.800781 25.109375 L 79.800781 23.699219 L 80.773438 23.8125 C 81.328125 23.890625 81.804688 23.984375 81.859375 24.042969 Z M 125.769531 25.398438 C 125.996094 25.664062 126.035156 29.839844 126.09375 52.871094 C 126.148438 79.3125 126.148438 80 125.804688 80 C 125.597656 80 125.3125 79.886719 125.140625 79.75 C 124.851562 79.542969 124.816406 77.234375 124.71875 54.640625 C 124.644531 40.953125 124.546875 28.523438 124.492188 27.015625 L 124.375 24.273438 L 124.929688 24.671875 C 125.253906 24.902344 125.617188 25.226562 125.769531 25.398438 Z M 108.667969 29.304688 C 108.761719 29.382812 108.859375 30.46875 108.875 31.707031 C 108.972656 35.921875 108.992188 61.753906 108.894531 61.832031 C 108.859375 61.867188 108.515625 61.773438 108.132812 61.621094 L 107.445312 61.335938 L 107.445312 28.90625 L 107.980469 29.019531 C 108.265625 29.09375 108.570312 29.210938 108.667969 29.304688 Z M 56.046875 30.371094 C 56.105469 30.886719 56.199219 32.050781 56.257812 33.003906 C 56.3125 33.9375 56.445312 36.074219 56.5625 37.730469 C 56.789062 41.085938 56.753906 41.296875 55.664062 41.296875 C 55.09375 41.296875 55.015625 41.238281 54.941406 40.667969 C 54.75 39.542969 54.082031 30.164062 54.179688 30.011719 C 54.273438 29.875 55.265625 29.535156 55.722656 29.496094 C 55.835938 29.476562 55.988281 29.875 56.046875 30.371094 Z M 24.511719 35.234375 C 24.722656 37.253906 25.140625 41.488281 25.445312 44.632812 C 25.769531 47.777344 26.039062 50.449219 26.039062 50.5625 C 26.039062 50.792969 24.570312 51.515625 24.417969 51.363281 C 24.324219 51.269531 22.414062 34.394531 22.414062 33.632812 C 22.414062 33.175781 23.882812 31.25 24.074219 31.460938 C 24.132812 31.496094 24.324219 33.195312 24.511719 35.234375 Z M 99.269531 37.234375 L 99.820312 37.558594 L 99.839844 41.679688 C 99.859375 43.929688 99.898438 46.445312 99.898438 47.265625 C 99.933594 48.980469 99.726562 49.265625 98.695312 48.902344 L 98.105469 48.695312 L 98.105469 47.054688 C 98.105469 46.140625 98.046875 43.488281 97.972656 41.144531 L 97.855469 36.910156 L 98.296875 36.910156 C 98.523438 36.910156 98.960938 37.0625 99.269531 37.234375 Z M 32.882812 44.632812 C 33.226562 48.292969 33.777344 54.472656 34.140625 58.359375 L 34.789062 65.414062 L 34.046875 66.15625 L 33.320312 66.902344 L 33.1875 65.394531 C 33.113281 64.554688 32.730469 60.667969 32.328125 56.738281 C 31.929688 52.8125 31.359375 47.113281 31.070312 44.082031 L 30.539062 38.589844 L 31.28125 37.902344 C 31.949219 37.273438 32.023438 37.253906 32.160156 37.597656 C 32.234375 37.789062 32.558594 40.953125 32.882812 44.632812 Z M 18.601562 46.941406 C 19.023438 50.695312 20.128906 60.6875 21.082031 69.132812 C 22.035156 77.578125 22.929688 85.71875 23.101562 87.242188 C 23.253906 88.769531 23.523438 91.074219 23.675781 92.390625 C 23.941406 94.621094 23.941406 94.773438 23.636719 95.003906 C 23.179688 95.347656 22.988281 95.308594 22.988281 94.910156 C 22.988281 94.738281 22.816406 93.289062 22.605469 91.722656 C 22.261719 89.113281 21.691406 84.6875 20.414062 74.757812 C 20.148438 72.753906 19.632812 68.769531 19.269531 65.890625 C 18.890625 63.011719 18.335938 58.722656 18.03125 56.359375 C 17.726562 53.996094 17.210938 49.953125 16.886719 47.339844 C 16.542969 44.746094 16.335938 42.441406 16.390625 42.191406 C 16.523438 41.679688 17.648438 39.886719 17.765625 40 C 17.800781 40.058594 18.183594 43.164062 18.601562 46.941406 Z M 12.769531 55.15625 C 13.054688 57.445312 13.589844 61.621094 13.949219 64.460938 C 14.3125 67.28125 14.769531 70.808594 14.980469 72.277344 L 15.34375 74.945312 L 14.941406 75.289062 C 14.714844 75.480469 14.484375 75.558594 14.410156 75.480469 C 14.332031 75.40625 14.179688 74.640625 14.066406 73.804688 C 13.949219 72.964844 13.246094 68.0625 12.484375 62.9375 L 11.128906 53.59375 L 11.566406 52.296875 C 11.796875 51.59375 12.042969 51.019531 12.101562 51.019531 C 12.179688 51.019531 12.464844 52.886719 12.769531 55.15625 Z M 117.4375 52.660156 C 117.703125 52.925781 117.742188 54.109375 117.742188 62.859375 L 117.742188 72.753906 L 117.207031 72.753906 C 116.046875 72.753906 116.0625 73.039062 115.988281 62.210938 L 115.929688 52.355469 L 116.539062 52.355469 C 116.863281 52.355469 117.285156 52.488281 117.4375 52.660156 Z M 75.703125 56.074219 C 80.011719 56.71875 83.769531 57.921875 87.484375 59.828125 C 89.886719 61.066406 91.03125 61.925781 93.699219 64.480469 C 97.667969 68.273438 100.105469 71.589844 102.394531 76.28125 C 105.730469 83.105469 107.027344 89.152344 108.667969 105.355469 C 109.410156 112.621094 110.382812 125.792969 110.59375 131.1875 C 110.648438 132.753906 110.78125 135.328125 110.898438 136.910156 C 111.105469 140.265625 111.355469 139.808594 108.398438 141.238281 C 104.300781 143.21875 100.355469 144.59375 95.148438 145.871094 C 88.78125 147.433594 84.664062 147.929688 78.371094 147.949219 L 73.796875 147.964844 L 73.835938 145.773438 C 73.835938 144.574219 73.949219 141.769531 74.0625 139.578125 C 74.636719 128.957031 74.519531 115.554688 73.777344 108.121094 C 73.359375 103.851562 72.539062 98.664062 72.082031 97.519531 C 71.984375 97.273438 72.425781 97.0625 74.3125 96.414062 C 77.761719 95.214844 80.753906 93.707031 81.214844 92.964844 C 82.03125 91.554688 80.566406 89.53125 78.695312 89.53125 C 78.371094 89.53125 77.398438 89.875 76.503906 90.277344 C 72.234375 92.238281 63.671875 94.546875 58.734375 95.0625 C 55.324219 95.421875 50.023438 95.214844 46.34375 94.546875 C 44.339844 94.183594 40.757812 92.832031 37.761719 91.285156 C 34.3125 89.492188 32.195312 87.109375 31.566406 84.289062 C 31.222656 82.765625 31.320312 79.714844 31.757812 77.996094 C 32.234375 76.109375 33.570312 73.363281 34.789062 71.761719 C 40.222656 64.613281 51.433594 58.417969 62.929688 56.242188 C 66.589844 55.558594 71.777344 55.480469 75.703125 56.074219 Z M 134.519531 56.664062 C 135.207031 56.949219 135.28125 57.027344 135.28125 57.675781 C 135.320312 62.878906 135.207031 74.777344 135.109375 75.269531 C 135.089844 75.441406 134.101562 75.460938 133.679688 75.308594 C 133.414062 75.214844 133.375 74.183594 133.375 65.777344 C 133.375 59.753906 133.453125 56.359375 133.566406 56.359375 C 133.660156 56.359375 134.101562 56.492188 134.519531 56.664062 Z M 142.851562 67.128906 L 143.535156 67.417969 L 143.402344 83.203125 C 143.25 103.316406 143.230469 103.90625 142.507812 105.640625 C 141.324219 108.484375 141.382812 109.054688 141.496094 96.585938 C 141.535156 90.351562 141.628906 84.042969 141.667969 82.574219 C 141.707031 81.105469 141.746094 76.96875 141.765625 73.363281 C 141.765625 69.019531 141.820312 66.84375 141.953125 66.84375 C 142.070312 66.84375 142.46875 66.976562 142.851562 67.128906 Z M 28.191406 71.878906 C 28.308594 73.421875 28.269531 73.574219 27.714844 74.792969 L 27.105469 76.089844 L 26.878906 74.183594 C 26.515625 71.132812 26.515625 71 27.238281 70.542969 C 27.5625 70.3125 27.90625 70.160156 27.964844 70.199219 C 28.019531 70.238281 28.136719 71 28.191406 71.878906 Z M 16.410156 83.375 C 16.582031 84.9375 17.917969 95.308594 18.601562 100.398438 C 19.632812 108.273438 19.707031 109.398438 19.25 108.921875 C 19.195312 108.863281 18.753906 106.214844 18.296875 103.03125 C 15.324219 82.476562 15.34375 82.609375 15.589844 82.457031 C 16.105469 82.117188 16.277344 82.304688 16.410156 83.375 Z M 30.136719 92.105469 C 30.25 92.582031 30.804688 97.75 30.804688 98.378906 C 30.804688 98.910156 30.117188 99.40625 29.8125 99.101562 C 29.71875 99.007812 29.46875 97.386719 29.28125 95.519531 C 29.070312 93.632812 28.859375 91.667969 28.804688 91.152344 L 28.6875 90.199219 L 29.355469 90.960938 C 29.738281 91.382812 30.082031 91.894531 30.136719 92.105469 Z M 45.523438 99.292969 C 45.734375 99.484375 45.867188 100.246094 46.039062 102.304688 C 46.324219 106.023438 46.363281 105.738281 45.582031 105.738281 C 44.78125 105.738281 44.796875 105.792969 44.53125 102.4375 C 44.265625 99.027344 44.265625 99.0625 44.78125 99.0625 C 45.027344 99.0625 45.351562 99.179688 45.523438 99.292969 Z M 60.621094 99.578125 C 60.660156 99.769531 60.757812 100.914062 60.832031 102.113281 C 60.890625 103.316406 61.0625 106.023438 61.214844 108.121094 C 61.746094 115.824219 61.765625 116.796875 61.441406 116.796875 C 61.082031 116.796875 61.042969 116.507812 60.621094 111.074219 C 60.46875 108.824219 60.183594 105.28125 59.992188 103.203125 C 59.820312 101.125 59.707031 99.386719 59.765625 99.351562 C 59.972656 99.121094 60.527344 99.292969 60.621094 99.578125 Z M 24.78125 103.238281 C 24.894531 103.410156 25.617188 109.511719 26.515625 117.84375 C 26.78125 120.359375 27.046875 122.78125 27.105469 123.238281 L 27.203125 124.058594 L 26.726562 123.753906 C 26.363281 123.507812 26.230469 123.257812 26.230469 122.820312 C 26.230469 121.617188 25.410156 113.707031 24.78125 108.863281 C 24.417969 106.117188 24.132812 103.699219 24.132812 103.46875 C 24.132812 103.066406 24.589844 102.914062 24.78125 103.238281 Z M 134.804688 111.207031 L 134.671875 119.179688 L 134.195312 119.882812 C 133.109375 121.484375 133.164062 121.789062 133.222656 112.867188 L 133.261719 104.6875 L 133.964844 103.964844 C 134.347656 103.582031 134.730469 103.257812 134.804688 103.257812 C 134.863281 103.257812 134.863281 106.84375 134.804688 111.207031 Z M 117.167969 123.847656 C 117.265625 134.925781 117.246094 135.785156 116.941406 136.128906 C 116.75 136.335938 116.578125 136.46875 116.523438 136.414062 C 116.386719 136.261719 116.199219 112.105469 116.351562 111.972656 C 116.425781 111.894531 116.617188 111.855469 116.789062 111.875 C 117.035156 111.933594 117.09375 113.285156 117.167969 123.847656 Z M 54.902344 116.261719 C 55.035156 117.441406 55.511719 123.105469 55.703125 125.773438 C 55.816406 127.566406 55.816406 127.625 55.398438 127.757812 C 55.167969 127.832031 54.902344 127.816406 54.828125 127.71875 C 54.691406 127.585938 54.273438 123.351562 53.757812 116.832031 L 53.625 115.269531 L 54.214844 115.269531 C 54.769531 115.269531 54.808594 115.308594 54.902344 116.261719 Z M 39.917969 122.933594 C 40.050781 123.066406 40.148438 123.542969 40.148438 124.019531 C 40.148438 124.515625 40.375 127.089844 40.625 129.757812 C 41.347656 137.0625 41.40625 138.054688 41.082031 137.863281 C 40.585938 137.574219 40.148438 137.136719 40.242188 137.023438 C 40.28125 136.945312 40.203125 135.992188 40.050781 134.90625 C 39.917969 133.800781 39.746094 132.007812 39.667969 130.902344 C 39.59375 129.796875 39.421875 127.777344 39.269531 126.421875 C 38.90625 123.085938 38.925781 122.707031 39.347656 122.707031 C 39.535156 122.707031 39.785156 122.800781 39.917969 122.933594 Z M 48.9375 135.765625 C 48.992188 136.183594 49.105469 137.746094 49.183594 139.234375 C 49.316406 142.09375 49.257812 142.304688 48.476562 141.714844 C 48.25 141.542969 48.097656 140.816406 47.867188 138.644531 C 47.46875 134.714844 47.449219 134.867188 48.191406 134.945312 C 48.746094 135.003906 48.820312 135.078125 48.9375 135.765625 Z M 48.9375 135.765625 "/>
<path style=" stroke:none;fill-rule:nonzero;fill:rgb(13.333333%,13.333333%,13.333333%);fill-opacity:1;" d="M 42.128906 65.203125 C 40.148438 66.0625 39.992188 68.75 41.863281 69.703125 C 43.214844 70.390625 44.589844 70.066406 45.292969 68.882812 C 46.628906 66.710938 44.457031 64.195312 42.128906 65.203125 Z M 55.054688 67.035156 C 53.226562 68.160156 53.226562 70.867188 55.054688 71.992188 C 56.867188 73.078125 59.210938 71.648438 59.210938 69.476562 C 59.210938 67.378906 56.808594 65.96875 55.054688 67.035156 Z M 55.054688 67.035156 "/>
</g>
</svg>
